<svg role="img" viewBox="0 0 24 24" xmlns="http://www.w3.org/2000/svg">
  <symbol id="sourcehut" viewBox="0 0 24 24">
    <title>SourceHut</title>
    <path d="M12 0C5.371 0 0 5.371 0 12s5.371 12 12 12 12-5.371 12-12S18.629 0 12 0Zm0 21.677A9.675 9.675 0 0 1 2.323 12 9.675 9.675 0 0 1 12 2.323 9.675 9.675 0 0 1 21.677 12 9.675 9.675 0 0 1 12 21.677Z"/>
  </symbol>
  <symbol id="github" viewBox="0 0 24 24">
    <title>GitHub</title>
    <path d="M12 .297c-6.63 0-12 5.373-12 12 0 5.303 3.438 9.8 8.205 11.385.6.113.82-.258.82-.577 0-.285-.01-1.04-.015-2.04-3.338.724-4.042-1.61-4.042-1.61C4.422 18.07 3.633 17.7 3.633 17.7c-1.087-.744.084-.729.084-.729 1.205.084 1.838 1.236 1.838 1.236 1.07 1.835 2.809 1.305 3.495.998.108-.776.417-1.305.76-1.605-2.665-.3-5.466-1.332-5.466-5.93 0-1.31.465-2.38 1.235-3.22-.135-.303-.54-1.523.105-3.176 0 0 1.005-.322 3.3 1.23.96-.267 1.98-.399 3-.405 1.02.006 2.04.138 3 .405 2.28-1.552 3.285-1.23 3.285-1.23.645 1.653.24 2.873.12 3.176.765.84 1.23 1.91 1.23 3.22 0 4.61-2.805 5.625-5.475 5.92.42.36.81 1.096.81 2.22 0 1.606-.015 2.896-.015 3.286 0 .315.21.69.825.57C20.565 22.092 24 17.592 24 12.297c0-6.627-5.373-12-12-12"/>
  </symbol>
  <symbol id="linkedin" viewBox="0 0 24 24">
    <title>LinkedIn</title>
    <path d="M20.447 20.452h-3.554v-5.569c0-1.328-.027-3.037-1.852-3.037-1.853 0-2.136 1.445-2.136 2.939v5.667H9.351V9h3.414v1.561h.046c.477-.9 1.637-1.85 3.37-1.85 3.601 0 4.267 2.37 4.267 5.455v6.286zM5.337 7.433c-1.144 0-2.063-.926-2.063-2.065 0-1.138.92-2.063 2.063-2.063 1.14 0 2.064.925 2.064 2.063 0 1.139-.925 2.065-2.064 2.065zm1.782 13.019H3.555V9h3.564v11.452zM22.225 0H1.771C.792 0 0 .774 0 1.729v20.542C0 23.227.792 24 1.771 24h20.451C23.2 24 24 23.227 24 22.271V1.729C24 .774 23.2 0 22.222 0h.003z"/>
  </symbol>
  <symbol xmlns="http://www.w3.org/2000/svg" id="xmpp" data-always-show="true" viewBox="0 0 24 24">
		<title>XMPP</title>
		<path d="M24 3.186l-3.217 1.248-.976.325-3.122.925c.014.18.014.361.014.555 0 3.422-1.744 7.59-4.63 10.573-2.805-2.972-4.49-7.066-4.49-10.434 0-.194 0-.375.014-.555l-3.11-.921v-.009l-.861-.306L0 3.172c.146 5.747 4.867 11.701 10.542 15.02-1.3 1.014-2.766 1.788-4.365 2.192v.319c.434-.054.852-.14 1.271-.225.15-.027.3-.048.451-.08l.047-.012c1.36-.29 2.722-.776 4.052-1.408.397.195.797.38 1.2.548.109.05.22.095.33.142.201.086.407.159.612.236 1.25.474 2.568.809 3.96.924v-.305c-1.68-.425-3.211-1.264-4.56-2.355C19.194 14.904 23.853 8.975 24 3.186z"/>
	</symbol>
  <symbol id="x" xmlns="http://www.w3.org/2000/svg" viewBox="0 0 512 512">
    <path d="M389.2 48h70.6L305.6 224.2 487 464H345L233.7 318.6 106.5 464H35.8L200.7 275.5 26.8 48H172.4L272.9 180.9 389.2 48zM364.4 421.8h39.1L151.1 88h-42L364.4 421.8z"/>
  </symbol>
  <symbol xmlns="http://www.w3.org/2000/svg" id="envelope" data-always-show="true" viewbox="0 0 100 100">
		<title>Envelope</title>
		<path d="m90.9 16.4h-81.8c-2.3 0-4.1 1.9-4.1 4.1v58.9c0 2.3 1.8 4.1 4.1 4.1h81.8c2.3 0 4.1-1.8 4.1-4.1v-58.9c0-2.2-1.8-4.1-4.1-4.1zm-40.9 35.5-30.3-27.3h60.6l-30.3 27.3zm-36.8-22.2 25.8 23.2-25.8 18.6v-41.8zm31.9 28.8 2.1 1.9c0.8 0.7 1.8 1.1 2.7 1.1 1 0 2-0.4 2.8-1.1l2.1-1.9 23.4 16.9h-56.4l23.3-16.9zm15.9-5.6 25.8-23.2v41.8l-25.8-18.6z"/>
	</symbol>
  <symbol id="moon" viewBox="0 0 24 24">
    <path d="M21.64,13a1,1,0,0,0-1.05-.14,8.05,8.05,0,0,1-3.37.73A8.15,8.15,0,0,1,9.08,5.49a8.59,8.59,0,0,1,.25-2A1,1,0,0,0,8,2.36,10.14,10.14,0,1,0,22,14.05,1,1,0,0,0,21.64,13Zm-9.5,6.69A8.14,8.14,0,0,1,7.08,5.22v.27A10.15,10.15,0,0,0,17.22,15.63a9.79,9.79,0,0,0,2.1-.22A8.11,8.11,0,0,1,12.14,19.73Z"/>
  </symbol>
  <symbol id="sun" viewBox="0 0 24 24">
    <path d="M5.64,17l-.71.71a1,1,0,0,0,0,1.41,1,1,0,0,0,1.41,0l.71-.71A1,1,0,0,0,5.64,17ZM5,12a1,1,0,0,0-1-1H3a1,1,0,0,0,0,2H4A1,1,0,0,0,5,12Zm7-7a1,1,0,0,0,1-1V3a1,1,0,0,0-2,0V4A1,1,0,0,0,12,5ZM5.64,7.05a1,1,0,0,0,.7.29,1,1,0,0,0,.71-.29,1,1,0,0,0,0-1.41l-.71-.71A1,1,0,0,0,4.93,6.34Zm12,.29a1,1,0,0,0,.7-.29l.71-.71a1,1,0,1,0-1.41-1.41L17,5.64a1,1,0,0,0,0,1.41A1,1,0,0,0,17.66,7.34ZM21,11H20a1,1,0,0,0,0,2h1a1,1,0,0,0,0-2Zm-9,8a1,1,0,0,0-1,1v1a1,1,0,0,0,2,0V20A1,1,0,0,0,12,19ZM18.36,17A1,1,0,0,0,17,18.36l.71.71a1,1,0,0,0,1.41,0,1,1,0,0,0,0-1.41ZM12,6.5A5.5,5.5,0,1,0,17.5,12,5.51,5.51,0,0,0,12,6.5Zm0,9A3.5,3.5,0,1,1,15.5,12,3.5,3.5,0,0,1,12,15.5Z"/>
  </symbol>
  <symbol xmlns="http://www.w3.org/2000/svg" id="cc-by-nc-sa" viewBox="0 0 96 24">
		<title>CC BY-NC-SA 4.0</title>
    <path class="cc" d="M11.983 0c-3.292 0-6.19 1.217-8.428 3.485C1.25 5.819 0 8.844 0 12c0 3.189 1.217 6.148 3.522 8.45C5.827 22.75 8.822 24 11.983 24c3.16 0 6.222-1.25 8.593-3.583C22.815 18.214 24 15.287 24 12c0-3.255-1.186-6.214-3.458-8.483C18.238 1.217 15.275 0 11.983 0zm.033 2.17c2.7 0 5.103 1.02 6.98 2.893 1.843 1.841 2.83 4.274 2.83 6.937 0 2.696-.954 5.063-2.798 6.872-1.943 1.906-4.444 2.926-7.012 2.926-2.601 0-5.038-1.019-6.914-2.893-1.877-1.875-2.93-4.34-2.93-6.905 0-2.597 1.053-5.063 2.93-6.97 1.844-1.874 4.214-2.86 6.914-2.86zM8.68 8.278C6.723 8.278 5.165 9.66 5.165 12c0 2.38 1.465 3.722 3.581 3.722 1.358 0 2.516-.744 3.155-1.874l-1.491-.758c-.333.798-.839 1.037-1.478 1.037-1.105 0-1.61-.917-1.61-2.126 0-1.21.426-2.127 1.61-2.127.32 0 .96.173 1.332.97l1.597-.838c-.68-1.236-1.837-1.728-3.181-1.728zm6.932 0c-1.957 0-3.514 1.382-3.514 3.722 0 2.38 1.464 3.722 3.58 3.722 1.359 0 2.516-.744 3.155-1.874l-1.49-.758c-.333.798-.84 1.037-1.478 1.037-1.105 0-1.611-.917-1.611-2.126 0-1.21.426-2.127 1.61-2.127.32 0 .96.173 1.332.97l1.597-.838c-.68-1.236-1.837-1.728-3.181-1.728z"/>
    <g class="cc-license-options" transform="translate(24,0)">
		  <path class="by" d="m12.26 0c3.3708 0 6.214 1.1569 8.5285 3.4713 2.3276 2.3287 3.4927 5.1715 3.4927 8.5285 0 3.3716-1.1434 6.1788-3.4293 8.4209-2.4285 2.3857-5.2923 3.5793-8.5919 3.5793-3.2433 0-6.0573-1.1797-8.4426-3.5366-2.3568-2.3572-3.5358-5.1775-3.5358-8.4636 0-3.2853 1.179-6.1282 3.5358-8.5281 2.3145-2.3148 5.128-3.4717 8.4426-3.4717zm0.04275 2.1645c-2.7285 0-5.0354 0.95736-6.9213 2.8713-1.9575 2.0002-2.9358 4.3218-2.9358 6.9644 0 2.6568 0.97123 4.9574 2.9137 6.8988 1.9428 1.9436 4.2569 2.9141 6.9426 2.9141 2.6711 0 4.9998-0.97723 6.9854-2.9355 1.8858-1.8142 2.8286-4.1062 2.8286-6.8781 0-2.7285-0.95736-5.0493-2.871-6.964-1.9136-1.9136-4.2281-2.871-6.9423-2.871zm3.2145 6.8568v4.9068h-1.371v5.8278h-3.7289v-5.8274h-1.371v-4.9072c0-0.2145 0.075-0.39637 0.22462-0.54637 0.15037-0.14962 0.33262-0.225 0.54637-0.225h4.9289c0.1995 0 0.37874 0.074999 0.53549 0.225 0.15637 0.15 0.23549 0.33224 0.23549 0.54637zm-4.9075-3.0855c0-1.128 0.55687-1.6927 1.6717-1.6927 1.1149 0 1.6713 0.56399 1.6713 1.6927 0 1.1141-0.55724 1.6713-1.6713 1.6713-1.1141 0-1.6717-0.55724-1.6717-1.6713z"/>
		  <path class="nc" d="m36.072 1.878e-4c3.3712 0 6.2144 1.1569 8.5289 3.4709 2.328 2.3141 3.4931 5.1569 3.4931 8.5289 0 3.3723-1.1426 6.1788-3.4293 8.422-2.4288 2.385-5.2923 3.5778-8.5926 3.5778-3.2572 0-6.0708-1.1857-8.4419-3.5564-2.3565-2.3576-3.5358-5.1715-3.5358-8.4434 0-3.2857 1.1794-6.1285 3.5362-8.5285 2.3137-2.3141 5.1277-3.4713 8.4415-3.4713zm-9.2777 8.7644c-0.35699 0.98548-0.53587 2.0643-0.53587 3.2358 0 2.6576 0.97124 4.9574 2.9137 6.8995 1.9571 1.9297 4.2716 2.8942 6.9426 2.8942 2.7 0 5.0283-0.97836 6.9865-2.9362 0.69974-0.67086 1.2495-1.371 1.6488-2.1011l-4.5213-2.0141c-0.15825 0.75786-0.53962 1.3747-1.1464 1.8525-0.60862 0.47887-1.3256 0.75486-2.154 0.82536v1.8427h-1.3931v-1.8427c-1.3286-0.01388-2.5428-0.49237-3.6427-1.4355l1.6496-1.6714c0.78561 0.72861 1.6788 1.0927 2.679 1.0927 0.41399 0 0.76836-0.09225 1.0612-0.279 0.29287-0.18487 0.43949-0.49162 0.43949-0.92136 0-0.30037-0.10687-0.54224-0.32137-0.72824l-1.1565-0.49274-1.4141-0.64312-1.9072-0.83586zm9.3212-6.6216c-2.7281 0-5.0354 0.96411-6.9213 2.8927-0.47174 0.47174-0.91424 1.008-1.3286 1.6076l4.5858 2.0568c0.1995-0.62887 0.57824-1.1321 1.1355-1.5105 0.55649-0.37837 1.2071-0.58874 1.9503-0.63224v-1.8438h1.3931v1.8435c1.1002 0.056999 2.1 0.42862 3 1.1141l-1.5645 1.6072c-0.67236-0.47137-1.3571-0.70724-2.0572-0.70724-0.37162 0-0.70386 0.071624-0.99598 0.2145-0.29287 0.14287-0.43949 0.38549-0.43949 0.72824 0 0.10012 0.03562 0.19987 0.10687 0.3l1.5214 0.68624 1.0507 0.47137 1.9286 0.85686 6.1488 2.7423c0.20062-0.84299 0.30074-1.6991 0.30074-2.571 0-2.7573-0.95773-5.0785-2.8706-6.9648-1.9012-1.9278-4.2161-2.892-6.9441-2.892z"/>
	    <path class="sa" d="m59.697 1.884e-4c3.3566 0 6.199 1.164 8.5281 3.4927 2.328 2.3145 3.4931 5.1502 3.4931 8.5071 0 3.3577-1.1434 6.1717-3.4293 8.4426-2.4142 2.3715-5.2784 3.5572-8.5919 3.5572-3.243 0-6.0569-1.179-8.4426-3.5366-2.3565-2.3561-3.5358-5.1768-3.5358-8.4632 0-3.2711 1.1797-6.1064 3.5366-8.5067 2.328-2.3291 5.1419-3.4931 8.4419-3.4931zm0.04275 2.1641c-2.7277 0-5.0358 0.96448-6.9213 2.8931-1.9575 1.9863-2.9355 4.3004-2.9355 6.9426 0 2.6718 0.97124 4.9709 2.9141 6.8999 1.9432 1.9436 4.2569 2.9141 6.9426 2.9141 2.6711 0 5.0002-0.97761 6.9858-2.9355 1.8858-1.8281 2.8286-4.1204 2.8286-6.8781 0-2.7423-0.95736-5.0568-2.871-6.9426-1.9012-1.9293-4.2153-2.8935-6.9434-2.8935zm-5.3572 8.1422c0.22762-1.4715 0.82049-2.6107 1.7782-3.4173 0.95661-0.80699 2.1202-1.2109 3.4923-1.2109 1.8847 0 3.3854 0.60749 4.4999 1.821 1.1141 1.2139 1.6713 2.7716 1.6713 4.6709 0 1.8435-0.57862 3.3749-1.7351 4.5956-1.1584 1.221-2.6576 1.833-4.5011 1.833-1.3567 0-2.5278-0.4065-3.5137-1.2221-0.98623-0.81449-1.5783-1.971-1.7782-3.4709h3.0221c0.07088 1.4576 0.94986 2.1855 2.6358 2.1855 0.84224 0 1.5214-0.36412 2.0355-1.0927 0.51487-0.72749 0.77286-1.6998 0.77286-2.9137 0-1.272-0.23662-2.2395-0.70761-2.904-0.47174-0.66411-1.149-0.99598-2.0362-0.99598-1.6005 0-2.5005 0.70686-2.6996 2.1206h0.87824l-2.3782 2.3786-2.379-2.3786z"/>
    </g>
	</symbol>
</svg>
