<svg role="img" viewBox="0 0 24 24" xmlns="http://www.w3.org/2000/svg"><symbol id="sourcehut" viewBox="0 0 512 512"><title>SourceHut</title><path fill="currentColor" d="M256 8C119 8 8 119 8 256s111 248 248 248 248-111 248-248S393 8 256 8zm0 448c-110.5.0-2e2-89.5-2e2-2e2S145.5 56 256 56s2e2 89.5 2e2 2e2-89.5 2e2-2e2 2e2z"/></symbol><symbol xmlns="http://www.w3.org/2000/svg" id="github" viewBox="0 0 24 24"><title>GitHub</title><path fill="currentColor" fill-rule="evenodd" d="M12.006 2A9.847 9.847.0 005.522 4.44a10.32 10.32.0 00-3.393 6.17 10.48 10.48.0 001.317 6.955 10.045 10.045.0 005.4 4.418c.504.095.683-.223.683-.494.0-.245-.01-1.052-.014-1.908-2.78.62-3.366-1.21-3.366-1.21a2.711 2.711.0 00-1.11-1.5c-.907-.637.07-.621.07-.621.317.044.62.163.885.346.266.183.487.426.647.71.135.253.318.476.538.655a2.079 2.079.0 002.37.196c.045-.52.27-1.006.635-1.37-2.219-.259-4.554-1.138-4.554-5.07a4.022 4.022.0 011.031-2.75 3.77 3.77.0 01.096-2.713s.839-.275 2.749 1.05a9.26 9.26.0 015.004.0c1.906-1.325 2.74-1.05 2.74-1.05.37.858.406 1.828.101 2.713a4.017 4.017.0 011.029 2.75c0 3.939-2.339 4.805-4.564 5.058a2.471 2.471.0 01.679 1.897c0 1.372-.012 2.477-.012 2.814.0.272.18.592.687.492a10.05 10.05.0 005.388-4.421 10.473 10.473.0 001.313-6.948 10.32 10.32.0 00-3.39-6.165A9.847 9.847.0 0012.007 2z" clip-rule="evenodd"/></symbol><symbol xmlns="http://www.w3.org/2000/svg" id="gitlab" viewBox="0 0 24 24"><title>GitLab</title><path fill="currentColor" d="m20.7011 10.1255-.0253-.0672-2.4501-6.63953c-.0498-.13013-.1381-.24053-.2521-.31534-.1141-.07354-.2472-.10896-.3812-.10147-.1341.00748-.2628.05751-.3686.14332-.1047.08828-.1806.2079-.2175.34259l-1.6543 5.2556H8.65334l-1.65429-5.2556c-.03588-.13542-.11197-.25564-.21745-.34356-.10584-.08582-.23449-.13584-.36857-.14333-.13409-.00748-.26716.02794-.38125.10148-.11376.07511-.20195.18541-.25213.31534l-2.45472 6.6367-.02437.0671c-.35269.9569-.39623 2.007-.12404 2.9918.27219.9849.84535 1.8511 1.63305 2.4682l.00844.0068.02249.0166 3.73223 2.9022 1.84647 1.4512 1.1247.8817c.1316.1037.2922.1599.4574.1599s.3258-.0562.4574-.1599l1.1247-.8817 1.8464-1.4512 3.7548-2.9198.0093-.0077c.786-.6172 1.3578-1.4826 1.6296-2.4661.2717-.9835.2288-2.0321-.1224-2.9881z"/></symbol><symbol id="linkedin" viewBox="0 0 24 24"><title>LinkedIn</title><path fill="currentColor" fill-rule="evenodd" d="M12.51 8.796v1.697a3.738 3.738.0 013.288-1.684c3.455.0 4.202 2.16 4.202 4.97V19.5h-3.2v-5.072c0-1.21-.244-2.766-2.128-2.766-1.827.0-2.139 1.317-2.139 2.676V19.5h-3.19V8.796h3.168zM7.2 6.106a1.61 1.61.0 01-.988 1.483 1.595 1.595.0 01-1.743-.348A1.607 1.607.0 015.6 4.5a1.601 1.601.0 011.6 1.606z" clip-rule="evenodd"/><path fill="currentColor" d="M7.2 8.809H4V19.5h3.2V8.809z"/></symbol><symbol xmlns="http://www.w3.org/2000/svg" id="xmpp" data-always-show="true" viewBox="0 0 24 24"><title>XMPP</title><path fill="currentColor" d="M24 3.186l-3.217 1.248-.976.325-3.122.925c.014.18.014.361.014.555.0 3.422-1.744 7.59-4.63 10.573-2.805-2.972-4.49-7.066-4.49-10.434.0-.194.0-.375.014-.555l-3.11-.921v-.009l-.861-.306L0 3.172c.146 5.747 4.867 11.701 10.542 15.02-1.3 1.014-2.766 1.788-4.365 2.192v.319c.434-.054.852-.14 1.271-.225.15-.027.3-.048.451-.08l.047-.012c1.36-.29 2.722-.776 4.052-1.408.397.195.797.38 1.2.548.109.05.22.095.33.142.201.086.407.159.612.236 1.25.474 2.568.809 3.96.924v-.305c-1.68-.425-3.211-1.264-4.56-2.355C19.194 14.904 23.853 8.975 24 3.186z"/></symbol><symbol xmlns="http://www.w3.org/2000/svg" id="x" viewBox="0 0 24 24"><title>X</title><path fill="currentColor" d="M13.795 10.533 20.68 2h-3.073l-5.255 6.517L7.69 2H1l7.806 10.91L1.47 22h3.074l5.705-7.07L15.31 22H22l-8.205-11.467zm-2.38 2.95L9.97 11.464 4.36 3.627h2.31l4.528 6.317 1.443 2.02 6.018 8.409h-2.31l-4.934-6.89z"/></symbol><symbol xmlns="http://www.w3.org/2000/svg" id="mastodon" viewBox="0 0 24 24"><title>Mastodon</title><path fill="currentColor" d="M23.268 5.313c-.35-2.578-2.617-4.61-5.304-5.004C17.51.242 15.792.0 11.813.0h-.03c-3.98.0-4.835.242-5.288.309C3.882.692 1.496 2.518.917 5.127.64 6.412.61 7.837.661 9.143c.074 1.874.088 3.745.26 5.611.118 1.24.325 2.47.62 3.68.55 2.237 2.777 4.098 4.96 4.857 2.336.792 4.849.923 7.256.38.265-.061.527-.132.786-.213.585-.184 1.27-.39 1.774-.753a.057.057.0 00.023-.043v-1.809a.052.052.0 00-.02-.041.053.053.0 00-.046-.01 20.282 20.282.0 01-4.709.545c-2.73.0-3.463-1.284-3.674-1.818a5.593 5.593.0 01-.319-1.433.053.053.0 01.066-.054c1.517.363 3.072.546 4.632.546.376.0.75.0 1.125-.01 1.57-.044 3.224-.124 4.768-.422.038-.008.077-.015.11-.024 2.435-.464 4.753-1.92 4.989-5.604.008-.145.03-1.52.03-1.67.002-.512.167-3.63-.024-5.545zm-3.748 9.195h-2.561V8.29c0-1.309-.55-1.976-1.67-1.976-1.23.0-1.846.79-1.846 2.35v3.403h-2.546V8.663c0-1.56-.617-2.35-1.848-2.35-1.112.0-1.668.668-1.67 1.977v6.218H4.822V8.102c0-1.31.337-2.35 1.011-3.12.696-.77 1.608-1.164 2.74-1.164 1.311.0 2.302.5 2.962 1.498l.638 1.06.638-1.06c.66-.999 1.65-1.498 2.96-1.498 1.13.0 2.043.395 2.74 1.164.675.77 1.012 1.81 1.012 3.12z"/></symbol><symbol xmlns="http://www.w3.org/2000/svg" id="envelope" viewbox="0 0 24 24"><title>Envelope</title><path fill="none" stroke="currentColor" stroke-linecap="round" stroke-width="2" d="m3.5 5.5 7.893 6.036a1 1 0 001.214.0L20.5 5.5M4 19h16a1 1 0 001-1V6a1 1 0 00-1-1H4A1 1 0 003 6v12a1 1 0 001 1z"/></symbol><symbol xmlns="http://www.w3.org/2000/svg" id="moon" viewBox="0 0 24 24"><title>Moon</title><path fill="none" stroke="currentColor" stroke-linecap="round" stroke-linejoin="round" stroke-width="2" d="M12 21a9 9 0 01-.5-17.986V3c-.354.966-.5 1.911-.5 3a9 9 0 009 9c.239.0.254.018.488.0A9.004 9.004.0 0112 21z"/></symbol><symbol xmlns="http://www.w3.org/2000/svg" id="sun" viewBox="0 0 24 24"><title>Sun</title><path fill="none" stroke="currentColor" stroke-linecap="round" stroke-linejoin="round" stroke-width="2" d="M12 5V3m0 18v-2M7.05 7.05 5.636 5.636m12.728 12.728L16.95 16.95M5 12H3m18 0h-2M7.05 16.95l-1.414 1.414M18.364 5.636 16.95 7.05M16 12a4 4 0 11-8 0 4 4 0 018 0z"/></symbol><symbol xmlns="http://www.w3.org/2000/svg" id="language" viewbox="0 0 24 24"><title>Language</title><path fill="none" stroke="currentColor" stroke-linecap="round" stroke-linejoin="round" stroke-width="2" d="m13 19 3.5-9 3.5 9m-6.125-2h5.25M3 7h7m0 0h2m-2 0c0 1.63-.793 3.926-2.239 5.655M7.5 6.818V5m.261 7.655C6.79 13.82 5.521 14.725 4 15m3.761-2.345L5 10m2.761 2.655L10.2 15"/></symbol><symbol xmlns="http://www.w3.org/2000/svg" id="cc-by-nc-sa" viewBox="0 0 96 24"><title>CC BY-NC-SA 4.0</title><path fill="currentColor" class="cc" d="M11.983.0c-3.292.0-6.19 1.217-8.428 3.485C1.25 5.819.0 8.844.0 12c0 3.189 1.217 6.148 3.522 8.45 2.305 2.3 5.3 3.55 8.461 3.55 3.16.0 6.222-1.25 8.593-3.583C22.815 18.214 24 15.287 24 12c0-3.255-1.186-6.214-3.458-8.483C18.238 1.217 15.275.0 11.983.0zm.033 2.17c2.7.0 5.103 1.02 6.98 2.893 1.843 1.841 2.83 4.274 2.83 6.937.0 2.696-.954 5.063-2.798 6.872-1.943 1.906-4.444 2.926-7.012 2.926-2.601.0-5.038-1.019-6.914-2.893-1.877-1.875-2.93-4.34-2.93-6.905.0-2.597 1.053-5.063 2.93-6.97 1.844-1.874 4.214-2.86 6.914-2.86zM8.68 8.278C6.723 8.278 5.165 9.66 5.165 12c0 2.38 1.465 3.722 3.581 3.722 1.358.0 2.516-.744 3.155-1.874l-1.491-.758c-.333.798-.839 1.037-1.478 1.037-1.105.0-1.61-.917-1.61-2.126.0-1.21.426-2.127 1.61-2.127.32.0.96.173 1.332.97l1.597-.838c-.68-1.236-1.837-1.728-3.181-1.728zm6.932.0c-1.957.0-3.514 1.382-3.514 3.722.0 2.38 1.464 3.722 3.58 3.722 1.359.0 2.516-.744 3.155-1.874l-1.49-.758c-.333.798-.84 1.037-1.478 1.037-1.105.0-1.611-.917-1.611-2.126.0-1.21.426-2.127 1.61-2.127.32.0.96.173 1.332.97l1.597-.838c-.68-1.236-1.837-1.728-3.181-1.728z"/><g class="cc-license-options" transform="translate(24,0)"><path fill="currentColor" class="by" d="m12.26.0c3.3708.0 6.214 1.1569 8.5285 3.4713 2.3276 2.3287 3.4927 5.1715 3.4927 8.5285.0 3.3716-1.1434 6.1788-3.4293 8.4209C18.4234 22.8064 15.5596 24 12.26 24c-3.2433.0-6.0573-1.1797-8.4426-3.5366-2.3568-2.3572-3.5358-5.1775-3.5358-8.4636.0-3.2853 1.179-6.1282 3.5358-8.5281 2.3145-2.3148 5.128-3.4717 8.4426-3.4717zm.04275 2.1645c-2.7285.0-5.0354.95736-6.9213 2.8713-1.9575 2.0002-2.9358 4.3218-2.9358 6.9644.0 2.6568.97123 4.9574 2.9137 6.8988 1.9428 1.9436 4.2569 2.9141 6.9426 2.9141 2.6711.0 4.9998-.97723 6.9854-2.9355 1.8858-1.8142 2.8286-4.1062 2.8286-6.8781.0-2.7285-.95736-5.0493-2.871-6.964-1.9136-1.9136-4.2281-2.871-6.9423-2.871zm3.2145 6.8568v4.9068h-1.371v5.8278h-3.7289v-5.8274h-1.371V9.0213c0-.2145.075-.39637.22462-.54637.15037-.14962.33262-.225.54637-.225h4.9289c.1995.0.37874.074999.53549.225.15637.15.23549.33224.23549.54637zm-4.9075-3.0855c0-1.128.55687-1.6927 1.6717-1.6927 1.1149.0 1.6713.56399 1.6713 1.6927.0 1.1141-.55724 1.6713-1.6713 1.6713-1.1141.0-1.6717-.55724-1.6717-1.6713z"/><path fill="currentColor" class="nc" d="m36.072 1878e-7c3.3712.0 6.2144 1.1569 8.5289 3.4709 2.328 2.3141 3.4931 5.1569 3.4931 8.5289.0 3.3723-1.1426 6.1788-3.4293 8.422-2.4288 2.385-5.2923 3.5778-8.5926 3.5778-3.2572.0-6.0708-1.1857-8.4419-3.5564-2.3565-2.3576-3.5358-5.1715-3.5358-8.4434.0-3.2857 1.1794-6.1285 3.5362-8.5285 2.3137-2.3141 5.1277-3.4713 8.4415-3.4713zm-9.2777 8.7644c-.35699.98548-.53587 2.0643-.53587 3.2358.0 2.6576.97124 4.9574 2.9137 6.8995 1.9571 1.9297 4.2716 2.8942 6.9426 2.8942 2.7.0 5.0283-.97836 6.9865-2.9362.69974-.67086 1.2495-1.371 1.6488-2.1011l-4.5213-2.0141c-.15825.75786-.53962 1.3747-1.1464 1.8525-.60862.47887-1.3256.75486-2.154.82536v1.8427h-1.3931v-1.8427c-1.3286-.01388-2.5428-.49237-3.6427-1.4355l1.6496-1.6714c.78561.72861 1.6788 1.0927 2.679 1.0927.41399.0.76836-.09225 1.0612-.279.29287-.18487.43949-.49162.43949-.92136.0-.30037-.10687-.54224-.32137-.72824l-1.1565-.49274-1.4141-.64312-1.9072-.83586zm9.3212-6.6216c-2.7281.0-5.0354.96411-6.9213 2.8927-.47174.47174-.91424 1.008-1.3286 1.6076l4.5858 2.0568c.1995-.62887.57824-1.1321 1.1355-1.5105.55649-.37837 1.2071-.58874 1.9503-.63224v-1.8438h1.3931v1.8435c1.1002.056999 2.1.42862 3 1.1141l-1.5645 1.6072c-.67236-.47137-1.3571-.70724-2.0572-.70724-.37162.0-.70386.071624-.99598.2145-.29287.14287-.43949.38549-.43949.72824.0.10012.03562.19987.10687.3l1.5214.68624 1.0507.47137 1.9286.85686 6.1488 2.7423c.20062-.84299.30074-1.6991.30074-2.571.0-2.7573-.95773-5.0785-2.8706-6.9648-1.9012-1.9278-4.2161-2.892-6.9441-2.892z"/><path fill="currentColor" class="sa" d="m59.697 1884e-7c3.3566.0 6.199 1.164 8.5281 3.4927 2.328 2.3145 3.4931 5.1502 3.4931 8.5071.0 3.3577-1.1434 6.1717-3.4293 8.4426-2.4142 2.3715-5.2784 3.5572-8.5919 3.5572-3.243.0-6.0569-1.179-8.4426-3.5366-2.3565-2.3561-3.5358-5.1768-3.5358-8.4632.0-3.2711 1.1797-6.1064 3.5366-8.5067 2.328-2.3291 5.1419-3.4931 8.4419-3.4931zm.04275 2.1641c-2.7277.0-5.0358.96448-6.9213 2.8931-1.9575 1.9863-2.9355 4.3004-2.9355 6.9426.0 2.6718.97124 4.9709 2.9141 6.8999 1.9432 1.9436 4.2569 2.9141 6.9426 2.9141 2.6711.0 5.0002-.97761 6.9858-2.9355 1.8858-1.8281 2.8286-4.1204 2.8286-6.8781.0-2.7423-.95736-5.0568-2.871-6.9426-1.9012-1.9293-4.2153-2.8935-6.9434-2.8935zm-5.3572 8.1422c.22762-1.4715.82049-2.6107 1.7782-3.4173.95661-.80699 2.1202-1.2109 3.4923-1.2109 1.8847.0 3.3854.60749 4.4999 1.821 1.1141 1.2139 1.6713 2.7716 1.6713 4.6709.0 1.8435-.57862 3.3749-1.7351 4.5956-1.1584 1.221-2.6576 1.833-4.5011 1.833-1.3567.0-2.5278-.4065-3.5137-1.2221-.98623-.81449-1.5783-1.971-1.7782-3.4709h3.0221c.07088 1.4576.94986 2.1855 2.6358 2.1855.84224.0 1.5214-.36412 2.0355-1.0927.51487-.72749.77286-1.6998.77286-2.9137.0-1.272-.23662-2.2395-.70761-2.904-.47174-.66411-1.149-.99598-2.0362-.99598-1.6005.0-2.5005.70686-2.6996 2.1206h.87824l-2.3782 2.3786-2.379-2.3786z"/></g></symbol></svg>